<svg id="visual" viewBox="0 0 960 540" width="960" height="540" xmlns="http://www.w3.org/2000/svg" xmlns:xlink="http://www.w3.org/1999/xlink" version="1.1"><path d="M0 71L80 72C160 73 320 75 480 73.2C640 71.3 800 65.7 880 62.8L960 60L960 0L880 0C800 0 640 0 480 0C320 0 160 0 80 0L0 0Z" fill="#1a202c"></path><path d="M0 222L80 219.3C160 216.7 320 211.3 480 214.2C640 217 800 228 880 233.5L960 239L960 58L880 60.8C800 63.7 640 69.3 480 71.2C320 73 160 71 80 70L0 69Z" fill="#1a1e2a"></path><path d="M0 303L80 302.2C160 301.3 320 299.7 480 304.2C640 308.7 800 319.3 880 324.7L960 330L960 237L880 231.5C800 226 640 215 480 212.2C320 209.3 160 214.7 80 217.3L0 220Z" fill="#191c27"></path><path d="M0 465L80 465C160 465 320 465 480 466.8C640 468.7 800 472.3 880 474.2L960 476L960 328L880 322.7C800 317.3 640 306.7 480 302.2C320 297.7 160 299.3 80 300.2L0 301Z" fill="#181a25"></path><path d="M0 541L80 541C160 541 320 541 480 541C640 541 800 541 880 541L960 541L960 474L880 472.2C800 470.3 640 466.7 480 464.8C320 463 160 463 80 463L0 463Z" fill="#171923"></path></svg>